<svg xmlns="http://www.w3.org/2000/svg" width="188" height="30"><defs><clipPath id="clip-path"><path id="사각형_6" data-name="사각형 6" class="cls-1" d="M0 0h187.666v29.832H0z"/></clipPath><style>.cls-1{fill:none}.cls-3{fill:#fff}</style></defs><g id="logo" transform="translate(-80 -62)" opacity=".6"><g id="그룹_120" data-name="그룹 120" transform="translate(80 62)"><path id="패스_1" data-name="패스 1" class="cls-3" d="M156.33 22.147h3.9l5.678-16.484L164.1.068zM164.1.068l1.812 5.595 5.745 16.484h3.9L167.723.068z" transform="translate(-116.446 -.049)"/><path id="패스_2" data-name="패스 2" class="cls-3" d="M267.159.068l-5.347 8.387-5.346-8.387h-4.193v22.073h3.627V6.748l1.9 2.694h7.916l2.014-2.988v15.687h3.624V.068z" transform="translate(-187.91 -.049)"/><path id="패스_3" data-name="패스 3" class="cls-3" d="M78.67 48.839v9.076h3.62v-9.076" transform="translate(-57.706 -36.532)"/><path id="패스_4" data-name="패스 4" class="cls-3" d="M3.62.056H0v22.077h3.623V3.68h10.538V.056z" transform="translate(0 -.042)"/><path id="사각형_1" data-name="사각형 1" class="cls-3" transform="translate(90.19 17.665)" d="M0 0h15.843v3.624H0z"/><path id="사각형_2" data-name="사각형 2" class="cls-3" transform="translate(90.19 .017)" d="M0 0h15.843v3.624H0z"/><g id="그룹_2" data-name="그룹 2"><g id="그룹_1" data-name="그룹 1" clip-path="url(#clip-path)"><path id="패스_5" data-name="패스 5" class="cls-3" d="M450.483.069h-2.75a6.074 6.074 0 00-6.067 6.068v9.093a6.074 6.074 0 006.067 6.067h2.75a6.074 6.074 0 006.068-6.067V6.137a6.075 6.075 0 00-6.068-6.068m2.7 15.014a2.793 2.793 0 01-2.79 2.79h-2.572a2.793 2.793 0 01-2.79-2.79v-8.8a2.793 2.793 0 012.79-2.791h2.572a2.793 2.793 0 012.79 2.791z" transform="translate(-328.491 -.051)"/><path id="패스_6" data-name="패스 6" class="cls-3" d="M536.493.069v.338l.051 5.563V15a2.777 2.777 0 01-2.774 2.774h-2.553A2.777 2.777 0 01528.443 15V.069h-3.4V15.23a6.074 6.074 0 006.067 6.067h2.763a6.074 6.074 0 006.067-6.067V.069h-3.449z" transform="translate(-390.505 -.051)"/><path id="패스_7" data-name="패스 7" class="cls-3" d="M717.744 99.276a2.52 2.52 0 11-2.519-2.519 2.519 2.519 0 012.519 2.519" transform="translate(-530.078 -71.964)"/><path id="선_1" data-name="선 1" transform="translate(3.484 9.03)" d="M0 0v3.484" fill="#ff2a00"/><path id="패스_8" data-name="패스 8" class="cls-3" d="M3.484 38.726h170.534V52.56H3.484v-5.107H0v8.591h177.5V38.726a3.484 3.484 0 00-3.484-3.484H3.484" transform="translate(0 -26.211)"/><path id="패스_9" data-name="패스 9" class="cls-3" d="M85.573 12.515l4.647 8.727h4.18l-4.98-9.059a5.734 5.734 0 001.229-.5A5.32 5.32 0 0092.761 9.5a6.887 6.887 0 00.75-3.277 6.851 6.851 0 00-.75-3.262 5.333 5.333 0 00-2.1-2.184A6.249 6.249 0 0087.511 0h-8.84v3.5h8.738a2.38 2.38 0 011.3.357 2.338 2.338 0 01.866 1.012 2.831 2.831 0 01.306 1.351 3.438 3.438 0 01-.321 1.468 2.214 2.214 0 01-2.155 1.344h-3.812l1.98 3.484h-3.421" transform="translate(-58.512)"/><path id="사각형_3" data-name="사각형 3" class="cls-3" transform="translate(124.693 7.565)" d="M0 0h3.366v6.111H0z"/><path id="사각형_4" data-name="사각형 4" class="cls-3" transform="translate(146.071 7.565)" d="M0 0h3.366v6.111H0z"/><path id="사각형_5" data-name="사각형 5" class="cls-3" transform="translate(79.82 7.565)" d="M0 0h3.484v6.111H0z"/><path id="패스_10" data-name="패스 10" class="cls-3" d="M201.106 35.634h-3.725l-2.1-6.111h3.652z" transform="translate(-144.99 -21.957)"/><path id="패스_11" data-name="패스 11" class="cls-3" d="M620.97.069h-14.862v3.4h5.74V21.3h3.382V3.468h5.74z" transform="translate(-450.796 -.051)"/></g></g></g><path id="사각형_111" data-name="사각형 111" class="cls-1" transform="translate(80 62)" d="M0 0h188v30H0z"/></g></svg>